<?xml version="1.0" encoding="utf-8"?>
<!-- Generator: Adobe Illustrator 22.0.0, SVG Export Plug-In . SVG Version: 6.00 Build 0)  -->
<svg version="1.1" id="Layer_1" xmlns="http://www.w3.org/2000/svg" xmlns:xlink="http://www.w3.org/1999/xlink" x="0px" y="0px"
	 width="300px" height="80px" viewBox="0 0 200 158" style="enable-background:new 0 0 291.9 158.3;" xml:space="preserve"
	>
<style type="text/css">
	.st0{fill:#002D3F;}
	.st1{fill:#F47721;}
	.st2{fill:#8DA8B5;}
</style>
<g>
	<path class="st0" d="M74.1,62.2c0-11-8.9-19.9-19.8-19.9l-0.1,0l-0.1,0c-10.9,0-19.8,8.9-19.8,19.9c0,5.4,2.2,10.4,5.7,13.9
		l14.2,19.5l0,0l0,0l14.2-19.5C71.9,72.6,74.1,67.6,74.1,62.2L74.1,62.2z M66.4,62.2c0,6.7-5.4,12.2-12.2,12.2
		c-6.7,0-12.2-5.4-12.2-12.2C42,55.5,47.5,50,54.2,50C60.9,50,66.4,55.5,66.4,62.2L66.4,62.2z"/>
	<polygon class="st0" points="83,84.7 68.3,84.7 54.2,104.5 39.7,84.7 25,84.7 46.8,113.4 46.8,131.3 61.2,131.3 61.2,114.4 
		83,84.7 	"/>
	<path class="st0" d="M131,131.3c1.9,0,3.8-0.3,5.6-1c1.8-0.7,3.3-1.7,4.6-3c1.3-1.3,2.3-2.8,3.1-4.6c0.8-1.8,1.2-3.8,1.2-5.9
		c0-2.2-0.4-4.1-1.2-5.9c-0.8-1.7-1.8-3.2-3.1-4.5c-1.3-1.3-2.8-2.3-4.6-3c-1.8-0.7-3.6-1-5.6-1h-30.3c-1,0-1.9-0.3-2.6-1
		c-0.7-0.7-1-1.5-1-2.6c0-1,0.3-1.9,1-2.6c0.7-0.7,1.5-1,2.6-1h29.7c1.2,0,1.9-0.1,2.3-0.3c0.4-0.2,0.9-0.9,1.5-1.9l4.3-8.4h-38.2
		c-2.3,0-4.5,0.3-6.5,0.9c-2,0.6-3.8,1.5-5.3,2.8c-1.5,1.2-2.7,2.7-3.5,4.5c-0.9,1.7-1.3,3.7-1.3,6c0,2.2,0.4,4.2,1.3,6
		c0.9,1.7,2,3.2,3.5,4.5c1.5,1.2,3.3,2.2,5.3,2.8c2,0.6,4.2,0.9,6.5,0.9h27.7h0.1c1.1,0,2,0.4,2.7,1.1c0.7,0.7,1.1,1.6,1.1,2.7
		c0,1.1-0.4,2-1.1,2.7c-0.7,0.7-1.6,1.1-2.7,1.1H83.8c-1.2,0-1.9,0.1-2.3,0.3c-0.4,0.2-0.9,0.9-1.5,2l-4.4,8.4h55.3H131L131,131.3z"
		/>
	<path class="st0" d="M198.9,131.3h15.9l-25.6-46.7h-16c-1.2,0-1.9,0.1-2.3,0.3c-0.4,0.2-0.9,0.9-1.5,2c-0.2,0.2-0.6,0.9-1.3,2.3
		c-0.7,1.4-1.7,3.1-2.8,5.2c-1.1,2.1-2.4,4.5-3.8,7.1c-1.4,2.6-2.9,5.3-4.4,8c-3.5,6.4-7.4,13.7-11.7,21.7h16l18.6-35.9l9.3,17.5
		h-10.4c-1.2,0-1.9,0.1-2.3,0.4c-0.4,0.3-0.9,0.9-1.5,1.9l-4.3,8.4h21.7c1.1,0,1.8,0.1,2.3,0.3c0.4,0.2,0.9,0.9,1.6,2L198.9,131.3
		L198.9,131.3z"/>
	<path class="st0" d="M233.5,131.3V98.2c0-0.8,0.3-1.6,0.9-2.1c0.6-0.6,1.3-0.9,2.1-0.9h22.4c1.8,0,3.2,0.6,4.4,1.8
		c1.2,1.2,1.7,2.7,1.7,4.4c0,1.7-0.6,3.2-1.7,4.4c-1.2,1.2-2.6,1.8-4.4,1.8h-13c-1.2,0-1.9,0.1-2.3,0.4c-0.4,0.3-0.9,0.9-1.5,1.9
		l-4.3,8.4h15l15.1,13.1h17.9l-16.9-14.4c3-1.2,5.5-3.2,7.5-6c2-2.8,3-6,3-9.5c0-2.3-0.4-4.5-1.3-6.5c-0.9-2-2.1-3.8-3.6-5.3
		c-1.5-1.5-3.3-2.7-5.3-3.6c-2.1-0.9-4.2-1.3-6.6-1.3h-43.2v46.7H233.5L233.5,131.3z"/>
	<path fill-opacity="0"  class="st1" d="M100.9,33.2C96,25.4,89.3,19,81.3,14.4c-8-4.5-17.3-7.1-27.1-7.1c-9.8,0-19.1,2.6-27,7.1
		c-8,4.5-14.7,11-19.6,18.7C6.4,35,7,37.4,8.8,38.5c1.8,1.1,4.3,0.6,5.4-1.2c4.2-6.7,9.9-12.2,16.8-16.1c6.8-3.9,14.7-6.1,23.2-6.1
		c8.5,0,16.4,2.2,23.2,6.1c6.8,3.9,12.6,9.5,16.8,16.1c1.1,1.8,3.6,2.4,5.4,1.3C101.5,37.5,102,35.1,100.9,33.2L100.9,33.2z">
		<animate 
		id="three"
        attributeName="fill-opacity"
        dur="500ms"
        values="0.0;1"
        calcMode="linear"
        begin="one.end+0.55s"/>
		</path>
	<path fill-opacity="0"  class="st1" d="M86.7,43.8c-3.2-5.7-7.8-10.4-13.4-13.7c-5.6-3.3-12.1-5.2-19.1-5.2c-7,0-13.5,1.9-19.1,5.3
		c-5.6,3.3-10.2,8.1-13.4,13.8c-1.1,1.9-0.4,4.3,1.5,5.4c1.9,1.1,4.3,0.4,5.4-1.5c2.5-4.5,6.2-8.2,10.6-10.9
		c4.4-2.6,9.6-4.1,15.1-4.1c5.5,0,10.7,1.5,15.1,4.1c4.4,2.6,8.1,6.4,10.6,10.9c1.1,1.9,3.5,2.6,5.4,1.5
		C87.1,48.1,87.8,45.7,86.7,43.8L86.7,43.8z">
		<animate 
		id="two"
        attributeName="fill-opacity"
        dur="500ms"
        values="0.0;1"
        calcMode="linear"
        begin="one.end+0.05s"/>
		</path>
		<path fill-opacity="0"  class="st1" d="M86.7,43.8c-3.2-5.7-7.8-10.4-13.4-13.7c-5.6-3.3-12.1-5.2-19.1-5.2c-7,0-13.5,1.9-19.1,5.3
		c-5.6,3.3-10.2,8.1-13.4,13.8c-1.1,1.9-0.4,4.3,1.5,5.4c1.9,1.1,4.3,0.4,5.4-1.5c2.5-4.5,6.2-8.2,10.6-10.9
		c4.4-2.6,9.6-4.1,15.1-4.1c5.5,0,10.7,1.5,15.1,4.1c4.4,2.6,8.1,6.4,10.6,10.9c1.1,1.9,3.5,2.6,5.4,1.5
		C87.1,48.1,87.8,45.7,86.7,43.8L86.7,43.8z">
		<animate 
		id="two"
        attributeName="fill-opacity"
        dur="500ms"
        values="1;1"
        calcMode="linear"
        begin="one.end+0.55s"/>
		</path>
	<path fill-opacity="0"  class="st1" d="M72.8,54.9c-1.5-3.7-4-6.9-7.2-9.1c-3.2-2.2-7.2-3.5-11.4-3.5c-4.2,0-8.1,1.3-11.3,3.5c-3.2,2.2-5.7,5.3-7.2,9
		c-0.8,2,0.2,4.3,2.2,5.1c2,0.8,4.3-0.2,5.1-2.2c0.9-2.2,2.4-4.1,4.4-5.5c2-1.3,4.3-2.1,6.8-2.1c2.6,0,4.9,0.8,6.9,2.1
		c2,1.4,3.5,3.3,4.4,5.5c0.8,2,3.1,3,5.1,2.2C72.6,59.2,73.6,56.9,72.8,54.9L72.8,54.9z">
		<animate 
		id="one"
        attributeName="fill-opacity"
        dur="500ms"
        values="0.0;1"
        calcMode="linear"
        begin="0s;three.end+0.05s"/>
		</path>
		<path fill-opacity="0"  class="st1" d="M72.8,54.9c-1.5-3.7-4-6.9-7.2-9.1c-3.2-2.2-7.2-3.5-11.4-3.5c-4.2,0-8.1,1.3-11.3,3.5c-3.2,2.2-5.7,5.3-7.2,9
		c-0.8,2,0.2,4.3,2.2,5.1c2,0.8,4.3-0.2,5.1-2.2c0.9-2.2,2.4-4.1,4.4-5.5c2-1.3,4.3-2.1,6.8-2.1c2.6,0,4.9,0.8,6.9,2.1
		c2,1.4,3.5,3.3,4.4,5.5c0.8,2,3.1,3,5.1,2.2C72.6,59.2,73.6,56.9,72.8,54.9L72.8,54.9z">
		<animate 
		id="oneA"
        attributeName="fill-opacity"
        dur="1000ms"
        values="1;1"
        calcMode="linear"
        begin="0s;three.end+0.55s"/>
		</path>
	<polygon class="st2" points="54.3,52.8 47,68.9 54.3,63.3 61.4,69 54.3,52.8 	"/>
	<g>
		<path class="st0" d="M51.6,143.4l-4.6-6.7h1.5l3.7,5.5l3.8-5.5h1.5l-4.6,6.7v4.4h-1.3V143.4z"/>
	</g>
	<g>
		<path class="st0" d="M57.9,142.3L57.9,142.3c0-3.1,2.3-5.8,5.7-5.8s5.6,2.6,5.6,5.7v0c0,3.1-2.3,5.7-5.7,5.7
			S57.9,145.3,57.9,142.3z M67.8,142.3L67.8,142.3c0-2.5-1.8-4.6-4.4-4.6s-4.3,2-4.3,4.5v0c0,2.5,1.8,4.6,4.4,4.6
			S67.8,144.8,67.8,142.3z"/>
		<path class="st0" d="M71.4,143.1v-6.4h1.2v6.4c0,2.4,1.3,3.7,3.4,3.7c2,0,3.3-1.2,3.3-3.7v-6.4h1.2v6.3c0,3.2-1.8,4.9-4.6,4.9
			C73.3,147.9,71.4,146.3,71.4,143.1z"/>
		<path class="st0" d="M86.3,137.9h-3.7v-1.2h8.7v1.2h-3.7v9.9h-1.3V137.9z"/>
		<path class="st0" d="M93.4,136.7h1.2v4.9h6.4v-4.9h1.2v11.1h-1.2v-5h-6.4v5h-1.2V136.7z"/>
		<path class="st0" d="M109.1,146.2l0.8-0.9c1.2,1,2.3,1.6,3.8,1.6c1.5,0,2.5-0.8,2.5-1.9v0c0-1-0.6-1.6-2.9-2.1
			c-2.5-0.6-3.7-1.4-3.7-3.2v0c0-1.7,1.5-3,3.6-3c1.6,0,2.8,0.5,3.9,1.4l-0.7,1c-1-0.8-2.1-1.2-3.2-1.2c-1.4,0-2.4,0.8-2.4,1.8v0
			c0,1,0.6,1.6,3,2.1c2.5,0.5,3.6,1.4,3.6,3.1v0c0,1.9-1.6,3.1-3.8,3.1C111.8,147.9,110.4,147.3,109.1,146.2z"/>
		<path class="st0" d="M119.7,136.7h8v1.1H121v3.8h6v1.1h-6v3.9h6.8v1.1h-8.1V136.7z"/>
		<path class="st0" d="M134.2,136.6h1.2l5,11.1h-1.3l-1.3-2.9h-6l-1.3,2.9h-1.3L134.2,136.6z M137.3,143.7l-2.5-5.6l-2.5,5.6H137.3z
			"/>
		<path class="st0" d="M142.4,136.7h4.8c1.4,0,2.5,0.4,3.1,1.1c0.5,0.5,0.9,1.3,0.9,2.2v0c0,1.8-1.3,2.9-3,3.2l3.4,4.5H150l-3.2-4.3
			h-3.2v4.3h-1.2V136.7z M147.1,142.3c1.7,0,2.8-0.9,2.8-2.3v0c0-1.4-1-2.2-2.8-2.2h-3.4v4.5H147.1z"/>
		<path class="st0" d="M153.2,142.3L153.2,142.3c0-3.2,2.3-5.8,5.6-5.8c2,0,3.2,0.7,4.3,1.8l-0.9,0.9c-0.9-0.9-2-1.5-3.5-1.5
			c-2.5,0-4.3,2-4.3,4.5v0c0,2.6,1.8,4.6,4.3,4.6c1.5,0,2.5-0.6,3.6-1.6l0.8,0.8c-1.2,1.2-2.4,1.9-4.4,1.9
			C155.5,148,153.2,145.4,153.2,142.3z"/>
		<path class="st0" d="M165.1,136.7h1.2v4.9h6.4v-4.9h1.2v11.1h-1.2v-5h-6.4v5h-1.2V136.7z"/>
		<path class="st0" d="M185.6,136.6h1.2l5,11.1h-1.3l-1.3-2.9h-6l-1.3,2.9h-1.3L185.6,136.6z M188.7,143.7l-2.5-5.6l-2.5,5.6H188.7z
			"/>
		<path class="st0" d="M193.8,136.7h1.2l7,8.9v-8.9h1.2v11.1h-1l-7.1-9.1v9.1h-1.2V136.7z"/>
		<path class="st0" d="M206.1,136.7h3.8c3.5,0,5.9,2.4,5.9,5.5v0c0,3.1-2.4,5.5-5.9,5.5h-3.8V136.7z M207.3,137.9v8.8h2.6
			c2.8,0,4.6-1.9,4.6-4.3v0c0-2.5-1.8-4.4-4.6-4.4H207.3z"/>
		<path class="st0" d="M222.8,136.7h4.8c1.4,0,2.5,0.4,3.1,1.1c0.5,0.5,0.9,1.3,0.9,2.2v0c0,1.8-1.3,2.9-3,3.2l3.4,4.5h-1.5
			l-3.2-4.3h-3.2v4.3h-1.2V136.7z M227.5,142.3c1.7,0,2.8-0.9,2.8-2.3v0c0-1.4-1-2.2-2.8-2.2h-3.4v4.5H227.5z"/>
		<path class="st0" d="M234,136.7h8v1.1h-6.8v3.8h6v1.1h-6v3.9h6.8v1.1H234V136.7z"/>
		<path class="st0" d="M243.7,146.2l0.8-0.9c1.2,1,2.3,1.6,3.8,1.6c1.5,0,2.5-0.8,2.5-1.9v0c0-1-0.6-1.6-2.9-2.1
			c-2.5-0.6-3.7-1.4-3.7-3.2v0c0-1.7,1.5-3,3.6-3c1.6,0,2.8,0.5,3.9,1.4l-0.7,1c-1-0.8-2.1-1.2-3.2-1.2c-1.4,0-2.4,0.8-2.4,1.8v0
			c0,1,0.6,1.6,3,2.1c2.5,0.5,3.6,1.4,3.6,3.1v0c0,1.9-1.6,3.1-3.8,3.1C246.5,147.9,245,147.3,243.7,146.2z"/>
		<path class="st0" d="M253.9,142.3L253.9,142.3c0-3.2,2.3-5.8,5.6-5.8c2,0,3.2,0.7,4.3,1.8l-0.9,0.9c-0.9-0.9-2-1.5-3.5-1.5
			c-2.5,0-4.3,2-4.3,4.5v0c0,2.6,1.8,4.6,4.3,4.6c1.5,0,2.5-0.6,3.6-1.6l0.8,0.8c-1.2,1.2-2.4,1.9-4.4,1.9
			C256.2,148,253.9,145.4,253.9,142.3z"/>
		<path class="st0" d="M265.7,143.1v-6.4h1.2v6.4c0,2.4,1.3,3.7,3.4,3.7c2,0,3.3-1.2,3.3-3.7v-6.4h1.2v6.3c0,3.2-1.8,4.9-4.6,4.9
			C267.5,147.9,265.7,146.3,265.7,143.1z"/>
		<path class="st0" d="M277.6,136.7h8v1.1h-6.8v3.8h6v1.1h-6v3.9h6.8v1.1h-8.1V136.7z"/>
	</g>
</g>
</svg>
